<svg xmlns="http://www.w3.org/2000/svg" viewBox="0 0 1200 650">
<rect width="1200" height="650" rx="36" fill="#F7F9FC"/>
<rect x="55" y="55" width="515" height="540" rx="28" fill="#fff" stroke="#E4E8EF" stroke-width="3"/>
<rect x="630" y="55" width="515" height="540" rx="28" fill="#fff" stroke="#00a866" stroke-width="4"/>
<text x="312" y="115" text-anchor="middle" font-family="Arial" font-size="27" font-weight="700" fill="#16181d">Sem Furusato</text>
<text x="887" y="115" text-anchor="middle" font-family="Arial" font-size="27" font-weight="700" fill="#00a866">Com Furusato</text>
<circle cx="312" cy="220" r="70" fill="#EEF2F6"/>
<path d="M278 219 h68 M312 185 v68" stroke="#5E6878" stroke-width="14" stroke-linecap="round"/>
<circle cx="887" cy="220" r="70" fill="#EAF7EF"/>
<path d="M850 220 l25 25 l51 -64" fill="none" stroke="#00a866" stroke-width="15" stroke-linecap="round" stroke-linejoin="round"/>
<g font-family="Arial" font-size="20" fill="#5E6878">
 <text x="110" y="340">• Você paga os impostos normalmente.</text>
 <text x="110" y="390">• Não escolhe município beneficiado.</text>
 <text x="110" y="440">• Não recebe presente do programa.</text>
 <text x="685" y="340">• Faz doação dentro do seu limite.</text>
 <text x="685" y="390">• Recebe dedução conforme as regras.</text>
 <text x="685" y="440">• Pode receber presente da prefeitura.</text>
</g>
<rect x="110" y="500" width="405" height="58" rx="16" fill="#F2F4F7"/>
<text x="312" y="537" text-anchor="middle" font-family="Arial" font-size="20" font-weight="700" fill="#5E6878">Sem presente adicional</text>
<rect x="685" y="500" width="405" height="58" rx="16" fill="#00a866"/>
<text x="887" y="537" text-anchor="middle" font-family="Arial" font-size="20" font-weight="700" fill="#fff">Benefício depende do limite correto</text>
</svg>