<svg xmlns="http://www.w3.org/2000/svg" viewBox="0 0 1400 900">
<defs>
 <linearGradient id="bg" x1="0" y1="0" x2="1" y2="1">
  <stop offset="0" stop-color="#f7f6f4"/><stop offset=".55" stop-color="#f7f6f4"/><stop offset="1" stop-color="#FFF3EE"/>
 </linearGradient>
 <filter id="shadow" x="-20%" y="-20%" width="150%" height="160%">
  <feDropShadow dx="0" dy="24" stdDeviation="28" flood-color="#16181d" flood-opacity=".14"/>
 </filter>
</defs>
<rect width="1400" height="900" rx="54" fill="url(#bg)"/>
<circle cx="1090" cy="170" r="120" fill="#e02b25" opacity=".95"/>
<path d="M610 610 L870 170 L1150 610 Z" fill="#c9ccd1"/>
<path d="M735 390 L870 170 L1010 390 Q935 355 870 392 Q805 355 735 390Z" fill="#f7f6f4"/>
<path d="M0 720 Q250 620 510 720 T1000 700 T1400 730 V900 H0Z" fill="#DDEFD9"/>

<!-- gifts -->
<g filter="url(#shadow)" transform="translate(700 470)">
 <rect x="0" y="0" width="540" height="280" rx="34" fill="#fff"/>
 <rect x="38" y="38" width="145" height="92" rx="20" fill="#F5E5D0"/>
 <ellipse cx="110" cy="82" rx="52" ry="28" fill="#B5483A"/>
 <path d="M74 70 Q110 48 145 72 Q111 104 74 70Z" fill="#E7A291"/>
 <rect x="208" y="38" width="126" height="92" rx="20" fill="#EDF2E6"/>
 <path d="M229 110 Q272 36 314 110" fill="#66A24D"/>
 <circle cx="253" cy="77" r="12" fill="#F6C844"/><circle cx="281" cy="63" r="12" fill="#F6C844"/>
 <rect x="359" y="38" width="143" height="92" rx="20" fill="#f7f6f4"/>
 <path d="M390 99 Q427 50 470 98 Q431 119 390 99Z" fill="#c9ccd1"/>
 <circle cx="461" cy="91" r="4" fill="#16181d"/>
 <rect x="38" y="157" width="464" height="78" rx="18" fill="#F7F9FC"/>
 <rect x="66" y="181" width="190" height="18" rx="9" fill="#ABB7C3"/>
 <rect x="66" y="211" width="132" height="13" rx="7" fill="#D5DDE5"/>
 <circle cx="446" cy="196" r="31" fill="#00a866"/>
 <path d="M430 196 l11 11 l24 -30" fill="none" stroke="#fff" stroke-width="8" stroke-linecap="round" stroke-linejoin="round"/>
</g>

<!-- calculator/decision -->
<g filter="url(#shadow)" transform="translate(135 110)">
 <rect width="460" height="650" rx="48" fill="#fff"/>
 <rect x="28" y="28" width="404" height="594" rx="34" fill="#FAFBFD" stroke="#DCE4EC" stroke-width="4"/>
 <rect x="72" y="78" width="316" height="86" rx="20" fill="#16181d"/>
 <text x="230" y="133" text-anchor="middle" font-family="Arial" font-size="39" font-weight="700" fill="#fff">¥2.000</text>
 <rect x="72" y="198" width="316" height="84" rx="20" fill="#fff" stroke="#E4E8EF" stroke-width="3"/>
 <circle cx="114" cy="240" r="23" fill="#00a866"/>
 <path d="M103 241 l9 9 l18 -23" fill="none" stroke="#fff" stroke-width="7" stroke-linecap="round"/>
 <rect x="158" y="223" width="176" height="15" rx="8" fill="#AAB6C4"/>
 <rect x="158" y="251" width="132" height="12" rx="6" fill="#D5DDE5"/>
 <rect x="72" y="310" width="316" height="84" rx="20" fill="#fff" stroke="#E4E8EF" stroke-width="3"/>
 <circle cx="114" cy="352" r="23" fill="#16181d"/>
 <path d="M100 352 h28 M114 338 v28" stroke="#fff" stroke-width="7" stroke-linecap="round"/>
 <rect x="158" y="335" width="176" height="15" rx="8" fill="#AAB6C4"/>
 <rect x="158" y="363" width="112" height="12" rx="6" fill="#D5DDE5"/>
 <rect x="72" y="436" width="316" height="92" rx="20" fill="#e02b25"/>
 <path d="M152 482 l22 22 l48 -61" fill="none" stroke="#fff" stroke-width="12" stroke-linecap="round" stroke-linejoin="round"/>
 <rect x="240" y="464" width="105" height="14" rx="7" fill="#fff" opacity=".9"/>
 <rect x="240" y="492" width="75" height="11" rx="5" fill="#fff" opacity=".7"/>
</g>
</svg>